#!OML:ASF E:/inclinewalkrobotboard/Project1/Captureday1/Session1/subject1.ASF
:FULLY-SPECIFIED
:DEGREES
201
root 0 0 0 1.8438876174276566 -3.889775957405479 2.177260215517885
lowerback 11.986009451073837 1.1629491153945608 -0.0991196484706317
upperback -4.457855144541269 1.4615662335865478 -0.8545998204180126
thorax -11.567241011705956 0.6768504857904842 -1.1323398731789314
lowerneck -6.237721673427269 1.7544862049473264 4.835043768147337
upperneck 18.173671439799136 3.2887202006124143 -8.491366339969481
head 6.696380376767408 1.2238363196269413 -3.2940716440749087
rclavicle -2.1618974573304745E-15 -1.0947503499585547E-15
rhumerus 23.25353273630745 17.832504657283728 -48.492950757321864
rradius 74.89475297566977
rwrist 25.82246368194265
rhand -34.81905370125445 -58.104865351389385
rfingers 7.12502
rthumb -7.962139505875067 -88.016398661832
lclavicle -1.12106025209247E-15 -8.33567399745458E-16
lhumerus 22.44138830976695 -14.551637577888895 45.765412867748836
lradius 71.34611123196706
lwrist -21.38524856331437
lhand -45.273243973408604 -69.02344375259156
lfingers 7.125020000000012
lthumb -18.047793572252527 -39.776545517932206
rfemur -24.556367312064985 -0.7860437352025849 18.60359235288307
rtibia 44.91358350373864
rfoot -33.03702624158409 -17.882236453911666
rtoes -23.005200746432873
lfemur -26.584405879022924 1.8440867076932648 -15.399861163768866
ltibia 45.117434725322454
lfoot -32.190606451440374 3.2865677735057615
ltoes -21.51213224106727
202
root 0 0 0 1.8441623195782557 -3.8926010502087935 2.175541837610516
lowerback 11.985935963441475 1.1644595633604338 -0.09648735899635685
upperback -4.457762177227592 1.4639227388063443 -0.8549475704600288
thorax -11.566995447198902 0.6778982107950424 -1.1346285653218717
lowerneck -6.237959719952453 1.753500036950052 4.834296388163421
upperneck 18.175126872201776 3.2872806877005054 -8.49007362612611
head 6.6969623135041765 1.2232269259616113 -3.2936555669334444
rclavicle -2.1544117498364375E-15 -1.1010292329889192E-15
rhumerus 23.261671477239226 17.844241345061995 -48.50031095445714
rradius 74.90216321316456
rwrist 25.814204114911902
rhand -34.81940613913993 -58.10522299275411
rfingers 7.12502
rthumb -7.96214299439853 -88.01586462960162
lclavicle -1.1197727059501865E-15 -8.395956141335794E-16
lhumerus 22.439517386731396 -14.552475202081224 45.76785604850508
lradius 71.34526645352517
lwrist -21.382474916808036
lhand -45.27292212982613 -69.02059187144422
lfingers 7.125020000000012
lthumb -18.04705751965058 -39.772600407277054
rfemur -24.530183600721138 -0.779164052273885 18.610024394782407
rtibia 44.87934915207628
rfoot -33.05013434245929 -17.882945914154792
rtoes -23.02980646597427
lfemur -26.6072231947324 1.8401797381220364 -15.399982798804231
ltibia 45.067161934211335
lfoot -32.2250161733311 3.316563855775059
ltoes -21.504644334296785
203
root 0 0 0 1.845002296823489 -3.895090240208088 2.174774191406724
lowerback 11.985950941255158 1.1656664184819223 -0.09496456671713371
upperback -4.457530367074171 1.4657053521888146 -0.8553842454786332
thorax -11.56673430601916 0.6787237303575198 -1.1361965213571064
lowerneck -6.2389019418746 1.7528083866929534 4.833728304240278
upperneck 18.175790614078235 3.2861943138594363 -8.48903434533385
head 6.697364541077239 1.2227710461227783 -3.2933408438636222
rclavicle -2.152898720479825E-15 -1.1008222086947598E-15
rhumerus 23.2659450173772 17.850133491247902 -48.50409154444329
rradius 74.90565142236545
rwrist 25.810021028027673
rhand -34.8194312803503 -58.104710996388484
rfingers 7.12502
rthumb -7.9621997809046565 -88.01527544696069
lclavicle -1.1171692403131692E-15 -8.395766504760949E-16
lhumerus 22.43832965826776 -14.55081721896595 45.76759971138653
lradius 71.34397058934779
lwrist -21.383190217692324
lhand -45.272666816468686 -69.0209180622839
lfingers 7.125020000000012
lthumb -18.046808838452744 -39.7729682590229
rfemur -24.518043960720682 -0.7755550917414555 18.614897299552464
rtibia 44.85923536977514
rfoot -33.06111283552005 -17.88322910212648
rtoes -23.040507371158
lfemur -26.613125690941693 1.8346005049482073 -15.404160357877869
ltibia 45.010217458751285
lfoot -32.25559993059738 3.3440289398060203
ltoes -21.499656080663065
204
root 0 0 0 1.845633741434955 -3.8961441994589734 2.1753741656907697
lowerback 11.985865626979471 1.1660899187794427 -0.09509130892449691
upperback -4.457426854307937 1.4662282153012582 -0.8557849797439895
thorax -11.566524470149751 0.6789888144954016 -1.1366127217262112
lowerneck -6.23940025532414 1.752367260707034 4.833244045839391
upperneck 18.176617735330986 3.285553375810956 -8.488371520080738
head 6.697740454839521 1.2224908811094575 -3.2931365740184093
rclavicle -2.1517317516109124E-15 -1.1000101500575554E-15
rhumerus 23.267885291642088 17.853060251205527 -48.50618870032196
rradius 74.90720099933688
rwrist 25.807728674831864
rhand -34.81935766559761 -58.104059318920804
rfingers 7.12502
rthumb -7.962128280642148 -88.01451466583886
lclavicle -1.1158411336533586E-15 -8.383774877752857E-16
lhumerus 22.43684902521541 -14.548606549820828 45.76717464199186
lradius 71.34235535769484
lwrist -21.38419793775303
lhand -45.27248914880021 -69.02207360862988
lfingers 7.125020000000012
lthumb -18.046629702675112 -39.773916631382036
rfemur -24.51412385683404 -0.7763078942572785 18.613610465111243
rtibia 44.862621511842036
rfoot -33.059045626618634 -17.881716594317403
rtoes -23.048420959287775
lfemur -26.59997069196141 1.8264633434910578 -15.415912985775071
ltibia 44.940449646935605
lfoot -32.283954404096086 3.367722228588713
ltoes -21.493964554692184
